<?xml version="1.0" standalone="no"?>
<!DOCTYPE svg PUBLIC "-//W3C//DTD SVG 20010904//EN"
 "http://www.w3.org/TR/2001/REC-SVG-20010904/DTD/svg10.dtd">
<svg version="1.0" xmlns="http://www.w3.org/2000/svg"
 width="2000.000000pt" height="2000.000000pt" viewBox="0 0 2000.000000 2000.000000"
 preserveAspectRatio="xMidYMid meet">

<g transform="translate(0.000000,2000.000000) scale(0.100000,-0.100000)"
fill="#000000" stroke="none">
<path d="M9335 15309 c-393 -18 -789 -122 -1145 -298 -410 -204 -786 -536
-1033 -911 -130 -198 -261 -493 -318 -714 -47 -184 -60 -286 -66 -514 -8 -322
16 -532 87 -784 182 -640 657 -1133 1450 -1504 388 -181 701 -295 1345 -488
1067 -319 1925 -734 2415 -1166 382 -337 490 -630 322 -874 -34 -50 -157 -148
-232 -186 -154 -78 -304 -79 -466 -5 -101 46 -168 91 -286 194 -120 103 -232
225 -584 636 -620 723 -993 1024 -1459 1178 -206 68 -301 82 -550 81 -244 0
-379 -15 -572 -65 -355 -91 -660 -275 -891 -539 -257 -294 -446 -729 -521
-1200 -39 -240 -46 -341 -46 -640 0 -262 8 -401 32 -552 l6 -38 132 0 131 0
12 159 c32 419 155 607 452 691 111 31 320 39 425 15 149 -32 352 -124 625
-281 561 -323 770 -425 1085 -530 269 -89 492 -125 780 -125 281 0 423 17 711
86 371 89 773 287 1079 532 735 588 1104 1519 934 2356 -161 796 -864 1471
-2051 1970 -325 138 -606 234 -1080 373 -618 180 -1028 334 -1443 542 -199 99
-282 147 -454 259 -307 201 -543 430 -641 623 -127 249 -74 460 157 626 137
99 285 144 413 125 158 -22 279 -97 470 -290 127 -127 202 -218 510 -611 523
-671 859 -962 1293 -1124 268 -100 523 -125 882 -85 925 102 1526 731 1705
1784 50 294 64 715 35 1040 -8 88 -15 168 -15 178 0 15 -14 17 -145 17 l-145
0 0 -87 c0 -121 -17 -252 -47 -353 -82 -285 -271 -418 -617 -436 -251 -13
-381 40 -918 377 -452 283 -714 408 -1023 489 -156 40 -271 59 -395 65 -58 3
-125 7 -150 8 -25 2 -112 0 -195 -4z"/>
<path d="M6057 5593 c-4 -3 -7 -55 -7 -115 l0 -108 26 0 26 0 -3 85 c-2 47 -3
85 -2 85 1 0 13 -38 28 -85 22 -74 29 -85 48 -85 20 0 27 11 49 78 l26 77 1
-77 c1 -76 2 -78 26 -78 l25 0 0 115 0 115 -34 0 -35 0 -26 -85 c-14 -47 -28
-85 -30 -85 -2 0 -16 38 -30 85 -25 80 -28 85 -54 85 -15 0 -31 -3 -34 -7z"/>
<path d="M6377 5589 c-62 -36 -60 -175 2 -209 35 -18 98 -12 126 13 51 44 51
145 -2 187 -28 22 -95 27 -126 9z m103 -45 c8 -8 13 -35 13 -59 0 -24 -5 -51
-13 -59 -16 -21 -59 -20 -82 1 -23 21 -24 89 -1 115 20 22 66 24 83 2z"/>
<path d="M6580 5485 l0 -115 53 0 c70 0 112 26 128 79 26 86 -32 151 -133 151
l-48 0 0 -115z m116 61 c14 -11 19 -26 19 -61 0 -51 -20 -75 -62 -75 -22 0
-23 3 -23 75 0 72 1 75 23 75 13 0 32 -6 43 -14z"/>
<path d="M6800 5485 l0 -115 65 0 c58 0 65 2 65 20 0 17 -7 20 -40 20 -38 0
-40 2 -40 30 0 28 3 30 35 30 28 0 35 4 35 20 0 16 -7 20 -35 20 -31 0 -35 3
-35 25 0 23 4 25 40 25 33 0 40 3 40 20 0 18 -7 20 -65 20 l-65 0 0 -115z"/>
<path d="M6967 5593 c-4 -3 -7 -55 -7 -115 l0 -108 25 0 c23 0 25 4 25 45 0
32 4 45 14 45 8 0 26 -20 40 -45 20 -34 33 -45 51 -45 31 0 31 2 -5 54 -29 43
-29 44 -10 61 20 18 26 60 12 82 -16 26 -126 46 -145 26z m98 -63 c0 -20 -6
-26 -27 -28 -25 -3 -28 0 -28 28 0 28 3 31 28 28 21 -2 27 -8 27 -28z"/>
<path d="M7160 5485 c0 -108 1 -115 20 -115 18 0 20 7 20 88 l0 87 49 -85 c43
-75 52 -85 80 -88 l31 -3 0 115 c0 109 -1 116 -20 116 -18 0 -20 -7 -20 -87
l0 -88 -51 88 c-45 78 -54 87 -80 87 l-29 0 0 -115z"/>
<path d="M7484 5485 l-41 -115 28 0 c21 0 28 5 31 23 3 19 10 22 49 25 43 3
47 1 53 -23 5 -18 13 -25 31 -25 14 0 25 3 24 8 0 4 -17 54 -38 112 -36 99
-39 105 -67 108 -30 3 -30 2 -70 -113z m96 -17 c0 -5 -11 -8 -25 -8 -28 0 -30
8 -14 65 l12 40 13 -45 c8 -25 14 -48 14 -52z"/>
<path d="M7680 5486 c0 -108 1 -116 19 -116 16 0 20 8 23 42 2 23 9 43 15 45
7 3 25 -16 40 -41 20 -33 34 -46 50 -46 29 0 29 3 -7 54 -29 43 -29 44 -10 61
24 22 26 77 4 96 -9 7 -42 15 -75 17 l-59 4 0 -116z m99 56 c13 -24 -4 -42
-36 -42 -19 0 -23 5 -23 30 0 25 4 30 25 30 13 0 29 -8 34 -18z"/>
<path d="M7850 5580 c0 -16 7 -20 30 -20 l30 0 0 -95 c0 -95 0 -95 25 -95 25
0 25 0 25 95 l0 95 30 0 c23 0 30 4 30 20 0 18 -7 20 -85 20 -78 0 -85 -2 -85
-20z"/>
<path d="M8110 5486 c0 -109 1 -116 20 -116 18 0 20 7 21 88 l0 87 27 -87 c23
-75 30 -88 49 -88 18 0 26 14 51 88 l30 87 1 -87 c1 -81 3 -88 21 -88 19 0 20
7 20 116 l0 115 -32 -3 c-29 -3 -33 -8 -55 -73 -13 -38 -26 -77 -29 -85 -3 -8
-17 22 -33 70 -26 82 -28 85 -59 88 l-32 3 0 -115z"/>
<path d="M8392 5504 c3 -86 5 -98 27 -115 35 -29 105 -26 136 6 23 22 25 32
25 115 0 89 0 90 -25 90 -25 0 -25 -1 -25 -79 0 -98 -5 -111 -39 -111 -43 0
-51 16 -51 107 0 83 0 83 -26 83 l-26 0 4 -96z"/>
<path d="M8630 5580 c-11 -11 -20 -31 -20 -44 0 -23 8 -32 79 -85 36 -26 19
-44 -36 -38 -41 4 -44 3 -41 -17 3 -18 11 -21 52 -24 101 -7 126 82 36 128
-28 14 -40 27 -40 42 0 18 4 20 41 15 30 -4 42 -2 46 10 14 36 -83 47 -117 13z"/>
<path d="M8780 5485 l0 -115 65 0 c58 0 65 2 65 20 0 17 -7 20 -40 20 -38 0
-40 2 -40 30 0 28 2 30 40 30 33 0 40 3 40 20 0 17 -7 20 -40 20 -36 0 -40 3
-40 25 0 23 4 25 40 25 33 0 40 3 40 20 0 18 -7 20 -65 20 l-65 0 0 -115z"/>
<path d="M8942 5504 c3 -86 5 -98 27 -115 35 -29 105 -26 136 6 23 22 25 32
25 115 0 89 0 90 -25 90 -25 0 -25 -1 -25 -79 0 -98 -5 -111 -39 -111 -43 0
-51 16 -51 107 0 83 0 83 -26 83 l-26 0 4 -96z"/>
<path d="M9170 5485 c0 -108 1 -115 20 -115 18 0 20 7 21 88 l1 87 27 -85 c24
-74 31 -85 51 -85 20 0 27 11 51 80 l27 80 1 -82 c1 -76 3 -83 21 -83 19 0 20
7 20 115 l0 115 -29 0 c-28 0 -31 -4 -57 -85 -16 -47 -31 -82 -35 -77 -4 4
-17 42 -29 85 -23 76 -23 77 -56 77 l-34 0 0 -115z"/>
<path d="M11287 5593 c-4 -3 -7 -55 -7 -115 l0 -108 25 0 c22 0 25 4 25 39 0
37 1 39 39 45 70 11 96 85 45 125 -26 21 -112 30 -127 14z m101 -62 c4 -25
-12 -41 -40 -41 -14 0 -18 8 -18 36 0 33 2 35 28 32 20 -2 28 -9 30 -27z"/>
<path d="M11510 5568 c-6 -18 -25 -70 -40 -115 l-29 -83 25 0 c17 0 27 8 34
25 8 22 16 25 54 25 39 0 45 -3 48 -22 2 -17 11 -24 30 -26 l27 -3 -29 83
c-53 155 -49 148 -80 148 -23 0 -30 -6 -40 -32z m54 -45 c4 -16 9 -36 12 -45
4 -14 0 -18 -19 -18 -33 0 -36 5 -23 50 12 47 21 51 30 13z"/>
<path d="M11677 5593 c-4 -3 -7 -55 -7 -115 l0 -108 25 0 25 0 0 115 c0 105
-2 115 -18 115 -10 0 -22 -3 -25 -7z"/>
<path d="M11767 5593 c-4 -3 -7 -55 -7 -115 l0 -108 26 0 27 0 -5 85 c-2 47
-3 85 -2 85 1 0 24 -38 50 -85 46 -79 51 -85 82 -85 l33 0 -3 113 c-3 108 -4
112 -25 115 -22 3 -23 1 -23 -80 l-1 -83 -47 82 c-40 70 -51 83 -73 83 -14 0
-29 -3 -32 -7z"/>
<path d="M11990 5580 c0 -16 7 -20 30 -20 l30 0 0 -95 c0 -95 0 -95 25 -95 25
0 25 0 25 95 l0 95 30 0 c23 0 30 4 30 20 0 18 -7 20 -85 20 -78 0 -85 -2 -85
-20z"/>
<path d="M12180 5485 l0 -115 25 0 25 0 0 115 0 115 -25 0 -25 0 0 -115z"/>
<path d="M12270 5485 c0 -108 1 -115 20 -115 18 0 20 7 20 88 l0 87 49 -85
c43 -75 52 -85 80 -88 l31 -3 0 115 c0 109 -1 116 -20 116 -18 0 -20 -7 -20
-87 l0 -88 -51 88 c-45 78 -54 87 -80 87 l-29 0 0 -115z"/>
<path d="M12565 5590 c-66 -26 -81 -141 -27 -195 19 -20 35 -25 73 -25 75 0
79 4 79 71 l0 59 -45 0 c-38 0 -45 -3 -45 -20 0 -13 7 -20 20 -20 15 0 20 -7
20 -25 0 -21 -5 -25 -29 -25 -37 0 -56 23 -56 70 0 57 29 83 82 77 32 -3 43
-1 48 11 3 8 0 19 -7 24 -17 10 -87 9 -113 -2z"/>
<path d="M6057 5233 c-4 -3 -7 -55 -7 -115 l0 -108 26 0 27 0 -5 85 c-2 47 -3
85 -2 85 1 0 24 -38 50 -85 46 -79 51 -85 82 -85 l33 0 -3 113 c-3 108 -4 112
-25 115 -22 3 -23 1 -23 -80 l-1 -83 -47 82 c-40 70 -51 83 -73 83 -14 0 -29
-3 -32 -7z"/>
<path d="M6300 5125 l0 -115 65 0 c58 0 65 2 65 20 0 17 -7 20 -40 20 -38 0
-40 2 -40 30 0 28 3 30 35 30 28 0 35 4 35 20 0 16 -7 20 -35 20 -31 0 -35 3
-35 25 0 23 4 25 40 25 31 0 40 4 41 18 0 9 10 -17 20 -58 11 -41 24 -92 30
-112 8 -33 14 -38 38 -38 27 0 28 3 46 82 21 88 18 89 50 -25 15 -54 18 -58
42 -55 24 3 28 11 55 108 15 58 28 108 28 113 0 4 -11 7 -23 7 -22 0 -25 -8
-42 -87 l-19 -88 -12 45 c-7 25 -18 64 -24 88 -9 34 -15 42 -34 42 -20 0 -25
-9 -41 -80 -10 -44 -21 -80 -25 -80 -3 0 -12 30 -20 68 -7 37 -15 73 -18 80
-3 8 -31 12 -93 12 l-89 0 0 -115z"/>
<path d="M6800 5235 c0 -3 16 -37 35 -75 23 -45 35 -84 35 -110 0 -36 2 -40
25 -40 23 0 25 3 25 48 0 35 9 65 36 115 l35 67 -25 0 c-20 0 -30 -10 -50 -47
l-24 -48 -23 48 c-18 36 -28 47 -46 47 -13 0 -23 -2 -23 -5z"/>
<path d="M7029 5211 c-25 -26 -29 -37 -29 -86 0 -49 4 -60 29 -86 24 -24 38
-29 76 -29 38 0 52 5 76 29 25 26 29 37 29 86 0 49 -4 60 -29 86 -24 24 -38
29 -76 29 -38 0 -52 -5 -76 -29z m115 -27 c18 -18 21 -85 6 -115 -7 -13 -21
-19 -45 -19 -41 0 -55 20 -55 79 0 45 20 71 55 71 13 0 31 -7 39 -16z"/>
<path d="M7250 5126 c0 -108 1 -116 19 -116 16 0 20 8 23 42 2 23 9 43 15 45
7 3 25 -16 40 -41 20 -33 34 -46 50 -46 29 0 29 3 -7 54 -29 43 -29 44 -10 61
24 22 26 77 4 96 -9 7 -42 15 -75 17 l-59 4 0 -116z m99 56 c13 -24 -4 -42
-36 -42 -19 0 -23 5 -23 30 0 25 4 30 25 30 13 0 29 -8 34 -18z"/>
<path d="M7440 5125 l0 -115 25 0 c23 0 25 4 25 45 0 29 4 45 13 45 6 0 24
-20 39 -45 21 -34 34 -45 53 -45 14 0 25 2 25 5 0 3 -16 29 -35 58 -19 28 -35
56 -35 62 0 5 16 30 36 55 35 44 36 45 13 48 -23 4 -38 -9 -86 -73 l-22 -30
-1 53 c0 49 -2 52 -25 52 l-25 0 0 -115z"/>
<path d="M11291 5214 c-12 -15 -21 -31 -21 -36 0 -22 23 -48 60 -69 56 -32 50
-55 -13 -52 -39 1 -47 -2 -47 -17 0 -22 19 -30 71 -30 44 0 79 27 79 61 0 23
-49 74 -81 84 -36 12 -18 40 25 40 24 0 41 5 44 14 6 19 -17 31 -60 31 -28 0
-42 -6 -57 -26z"/>
<path d="M11477 5219 c-52 -40 -55 -152 -6 -192 33 -26 123 -20 127 8 2 18 -2
20 -38 17 -23 -2 -47 1 -55 8 -22 18 -29 74 -13 107 12 24 19 28 57 28 29 0
46 5 49 14 12 35 -80 43 -121 10z"/>
<path d="M11632 5144 c3 -86 5 -98 27 -115 35 -29 105 -26 136 6 23 22 25 32
25 115 0 89 0 90 -25 90 -25 0 -25 -1 -25 -79 0 -98 -5 -111 -39 -111 -43 0
-51 16 -51 107 0 83 0 83 -26 83 l-26 0 4 -96z"/>
<path d="M11860 5125 l0 -115 70 0 c63 0 70 2 70 20 0 17 -7 20 -45 20 l-45 0
0 95 c0 95 0 95 -25 95 l-25 0 0 -115z"/>
<path d="M12027 5233 c-4 -3 -7 -55 -7 -115 l0 -108 25 0 c22 0 25 4 25 39 0
37 1 39 39 45 70 11 96 85 45 125 -26 21 -112 30 -127 14z m101 -62 c4 -25
-12 -41 -40 -41 -14 0 -18 8 -18 36 0 33 2 35 28 32 20 -2 28 -9 30 -27z"/>
<path d="M12190 5220 c0 -16 7 -20 30 -20 l30 0 0 -95 c0 -95 0 -95 25 -95 25
0 25 0 25 95 l0 95 30 0 c23 0 30 4 30 20 0 18 -7 20 -85 20 -78 0 -85 -2 -85
-20z"/>
<path d="M12380 5146 c0 -90 1 -96 26 -115 16 -13 41 -21 64 -21 23 0 48 8 64
21 25 19 26 25 26 115 0 87 -1 94 -20 94 -18 0 -20 -7 -20 -78 0 -91 -12 -115
-55 -110 -35 4 -43 24 -44 121 -1 60 -3 67 -21 67 -19 0 -20 -7 -20 -94z"/>
<path d="M12610 5126 c0 -108 1 -116 19 -116 16 0 20 8 23 42 2 23 9 43 15 45
7 3 25 -16 40 -41 20 -33 34 -46 50 -46 29 0 29 3 -7 54 -29 43 -29 44 -10 61
24 22 26 77 4 96 -9 7 -42 15 -75 17 l-59 4 0 -116z m99 56 c13 -24 -4 -42
-36 -42 -19 0 -23 5 -23 30 0 25 4 30 25 30 13 0 29 -8 34 -18z"/>
<path d="M12800 5125 l0 -115 65 0 c58 0 65 2 65 20 0 17 -7 20 -40 20 -38 0
-40 2 -40 30 0 28 2 30 40 30 33 0 40 3 40 20 0 17 -7 20 -40 20 -36 0 -40 3
-40 25 0 23 4 25 40 25 33 0 40 3 40 20 0 18 -7 20 -65 20 l-65 0 0 -115z"/>
<path d="M6057 4873 c-4 -3 -7 -55 -7 -115 l0 -108 65 0 c58 0 65 2 65 20 0
17 -7 20 -40 20 -38 0 -40 2 -40 30 0 28 2 30 40 30 33 0 40 3 40 20 0 17 -7
20 -40 20 -36 0 -40 3 -40 25 0 23 4 25 40 25 33 0 40 3 40 20 0 18 -7 20 -58
20 -32 0 -62 -3 -65 -7z"/>
<path d="M6230 4863 c-16 -11 -20 -24 -18 -51 3 -32 9 -40 46 -60 28 -16 42
-30 42 -44 0 -19 -4 -20 -50 -15 -44 5 -50 4 -50 -12 0 -23 19 -31 71 -31 45
0 79 27 79 64 0 23 -8 32 -79 85 -34 25 -19 45 30 38 22 -3 39 -2 39 2 0 3 18
5 40 3 l40 -4 0 -94 c0 -87 1 -94 20 -94 19 0 20 7 20 95 l0 95 36 0 c28 0 35
3 32 18 -3 15 -18 17 -140 18 -106 1 -142 -2 -158 -13z"/>
<path d="M6550 4765 l0 -115 45 0 c56 0 110 21 125 50 6 12 12 41 12 65 0 24
-6 53 -12 65 -15 29 -69 50 -125 50 l-45 0 0 -115z m115 55 c42 -46 11 -130
-47 -130 l-28 0 0 75 0 75 28 0 c16 0 37 -9 47 -20z"/>
<path d="M6842 4864 c-18 -12 -20 -19 -11 -30 8 -10 16 -11 29 -4 26 14 60 12
61 -2 3 -31 -5 -46 -52 -93 -72 -74 -68 -85 31 -85 73 0 80 2 80 20 0 17 -7
20 -52 20 l-52 0 47 48 c36 37 47 55 47 79 0 56 -76 84 -128 47z"/>
<path d="M7011 4854 c-16 -21 -21 -41 -21 -89 0 -78 24 -115 74 -115 46 0 67
19 76 71 10 53 -1 112 -26 140 -26 29 -78 25 -103 -7z m79 -33 c11 -22 13 -74
4 -109 -9 -34 -45 -25 -56 13 -8 27 -3 89 8 107 9 15 33 8 44 -11z"/>
<path d="M7178 4869 c-29 -17 -11 -36 35 -35 36 1 42 -2 42 -19 0 -15 -8 -21
-32 -23 -25 -2 -33 -8 -33 -23 0 -12 7 -19 19 -19 33 0 51 -11 51 -31 0 -25
-36 -39 -73 -28 -25 7 -28 6 -25 -14 3 -19 10 -22 55 -25 42 -2 56 1 72 17 27
27 27 66 -1 85 -21 15 -21 16 -4 29 24 17 24 66 0 84 -21 15 -81 17 -106 2z"/>
<path d="M7349 4861 c-21 -17 -24 -27 -24 -94 0 -60 4 -79 19 -96 21 -23 65
-28 96 -11 45 24 51 159 9 201 -24 24 -70 24 -100 0z m75 -37 c9 -23 7 -107
-3 -122 -5 -8 -17 -12 -27 -10 -16 3 -20 14 -22 62 -2 32 -1 65 2 72 7 19 42
18 50 -2z"/>
<path d="M11287 4873 c-4 -3 -7 -55 -7 -115 l0 -108 25 0 c22 0 25 4 25 39 0
37 1 39 39 45 70 11 96 85 45 125 -26 21 -112 30 -127 14z m101 -62 c4 -25
-12 -41 -40 -41 -14 0 -18 8 -18 36 0 33 2 35 28 32 20 -2 28 -9 30 -27z"/>
<path d="M11470 4765 l0 -115 25 0 c23 0 25 3 25 50 l0 50 45 0 45 0 0 -50 c0
-47 2 -50 25 -50 l26 0 -3 113 c-3 108 -4 112 -25 115 -21 3 -23 -1 -23 -42
l0 -46 -45 0 -45 0 0 45 c0 41 -2 45 -25 45 l-25 0 0 -115z"/>
<path d="M11737 4869 c-62 -36 -60 -175 2 -209 35 -18 98 -12 126 13 51 44 51
145 -2 187 -28 22 -95 27 -126 9z m103 -45 c8 -8 13 -35 13 -59 0 -24 -5 -51
-13 -59 -16 -21 -59 -20 -82 1 -23 21 -24 89 -1 115 20 22 66 24 83 2z"/>
<path d="M11920 4860 c0 -16 7 -20 30 -20 l30 0 0 -95 c0 -95 0 -95 25 -95 25
0 25 0 25 95 l0 95 30 0 c23 0 30 4 30 20 0 18 -7 20 -85 20 -78 0 -85 -2 -85
-20z"/>
<path d="M12129 4851 c-25 -26 -29 -37 -29 -86 0 -49 4 -60 29 -86 24 -24 38
-29 76 -29 38 0 52 5 76 29 25 26 29 37 29 86 0 49 -4 60 -29 86 -24 24 -38
29 -76 29 -38 0 -52 -5 -76 -29z m115 -27 c18 -18 21 -85 6 -115 -7 -13 -21
-19 -45 -19 -41 0 -55 20 -55 79 0 45 20 71 55 71 13 0 31 -7 39 -16z"/>
<path d="M12391 4866 c-34 -19 -50 -54 -51 -109 0 -41 5 -53 29 -78 24 -23 38
-29 74 -29 72 0 77 4 77 71 l0 59 -45 0 c-38 0 -45 -3 -45 -20 0 -15 7 -20 25
-20 20 0 25 -5 25 -25 0 -22 -4 -25 -35 -25 -41 0 -55 20 -55 78 0 53 26 76
79 69 30 -4 41 -1 46 11 3 8 0 19 -7 24 -20 12 -90 9 -117 -6z"/>
<path d="M12560 4765 l0 -115 25 0 c23 0 25 4 25 45 0 29 4 45 13 45 6 0 24
-20 39 -45 26 -43 30 -45 73 -45 39 0 47 3 55 25 8 22 16 25 54 25 39 0 45 -3
48 -22 2 -17 11 -24 30 -26 l27 -3 -29 83 c-53 155 -49 148 -80 148 -26 0 -30
-6 -59 -87 -50 -140 -44 -133 -74 -89 l-26 39 22 28 c41 57 -4 109 -95 109
l-48 0 0 -115z m98 66 c23 -14 10 -46 -21 -49 -24 -3 -27 0 -27 27 0 32 19 41
48 22z m196 -28 c4 -16 9 -36 12 -45 4 -14 0 -18 -19 -18 -33 0 -36 5 -23 50
12 47 21 51 30 13z"/>
<path d="M12967 4873 c-4 -3 -7 -55 -7 -115 l0 -108 25 0 c22 0 25 4 25 39 0
37 1 39 39 45 70 11 96 85 45 125 -26 21 -112 30 -127 14z m101 -62 c4 -25
-12 -41 -40 -41 -14 0 -18 8 -18 36 0 33 2 35 28 32 20 -2 28 -9 30 -27z"/>
<path d="M13150 4765 l0 -115 25 0 c23 0 25 3 25 50 l0 50 45 0 45 0 0 -50 c0
-47 2 -50 25 -50 l26 0 -3 113 c-3 108 -4 112 -25 115 -21 3 -23 -1 -23 -42
l0 -46 -45 0 -45 0 0 45 c0 41 -2 45 -25 45 l-25 0 0 -115z"/>
<path d="M13385 4810 c25 -49 35 -83 35 -115 0 -41 2 -45 25 -45 23 0 25 4 25
43 0 30 10 62 35 107 19 36 35 68 35 73 0 4 -10 7 -23 7 -18 0 -28 -11 -46
-47 l-23 -48 -24 48 c-19 37 -30 47 -49 47 l-25 0 35 -70z"/>
</g>
</svg>
